<?xml version="1.0" encoding="UTF-8" standalone="no"?>
<!-- Created with Inkscape (http://www.inkscape.org/) -->

<svg
   version="1.1"
   id="svg1"
   width="426.66666"
   height="426.66666"
   viewBox="0 0 426.66666 426.66666"
   sodipodi:docname="sun_026.eps"
   xmlns:inkscape="http://www.inkscape.org/namespaces/inkscape"
   xmlns:sodipodi="http://sodipodi.sourceforge.net/DTD/sodipodi-0.dtd"
   xmlns="http://www.w3.org/2000/svg"
   xmlns:svg="http://www.w3.org/2000/svg">
  <defs
     id="defs1" />
  <sodipodi:namedview
     id="namedview1"
     pagecolor="#ffffff"
     bordercolor="#000000"
     borderopacity="0.25"
     inkscape:showpageshadow="2"
     inkscape:pageopacity="0.0"
     inkscape:pagecheckerboard="0"
     inkscape:deskcolor="#d1d1d1">
    <inkscape:page
       x="0"
       y="0"
       inkscape:label="1"
       id="page1"
       width="426.66666"
       height="426.66666"
       margin="0"
       bleed="0" />
  </sodipodi:namedview>
  <g
     id="g1"
     inkscape:groupmode="layer"
     inkscape:label="1">
    <path
       id="path1"
       d="m 1600,2379.66 c -430.59,0 -779.664,-349.07 -779.664,-779.66 0,-430.6 349.074,-779.656 779.664,-779.656 430.6,0 779.66,349.056 779.66,779.656 0,430.59 -349.06,779.66 -779.66,779.66 z m 0,-1359.32 c -319.63,0 -579.66,260.04 -579.66,579.66 0,319.63 260.03,579.66 579.66,579.66 319.62,0 579.66,-260.03 579.66,-579.66 0,-319.62 -260.04,-579.66 -579.66,-579.66 z m -0.02,1544.64 c 55.22,0 100.02,44.77 100.02,100 V 3100 c 0,55.23 -44.8,100 -100.02,100 -55.22,0 -100,-44.77 -100,-100 v -435.02 c 0,-55.23 44.78,-100 100,-100 z m 0,-1929.968 c -55.22,0 -99.98,-44.739 -99.98,-99.973 V 100 c 0,-55.2031 44.76,-100 99.98,-100 55.25,0 100.01,44.7969 100.01,100 v 435.039 c 0,55.234 -44.76,99.973 -100.01,99.973 z M 3100,1700 h -435.04 c -55.23,0 -99.97,-44.76 -99.97,-99.98 0,-55.25 44.74,-100.01 99.97,-100.01 H 3100 c 55.21,0 100,44.76 100,100.01 0,55.22 -44.79,99.98 -100,99.98 z M 635.02,1600.02 c 0,55.22 -44.77,100 -100,100 H 100 c -55.2305,0 -100,-44.78 -100,-100 C 0,1544.8 44.7695,1500 100,1500 h 435.02 c 55.23,0 100,44.8 100,100.02 z m 1718.02,653.04 c 25.59,0 51.18,9.76 70.71,29.27 l 307.61,307.65 c 39.06,39.02 39.06,102.35 0,141.41 -39.06,39.04 -102.36,39.04 -141.43,0 l -307.59,-307.64 c -39.07,-39.03 -39.07,-102.36 0,-141.42 19.52,-19.51 45.11,-29.27 70.7,-29.27 z M 776.215,917.668 468.609,610.066 c -39.035,-39.058 -39.035,-102.363 0.024,-141.421 19.515,-19.536 45.113,-29.297 70.699,-29.297 25.59,0 51.18,9.761 70.691,29.297 L 917.637,776.25 c 39.062,39.063 39.062,102.371 0,141.418 -39.059,39.062 -102.36,39.062 -141.422,0 z m 1647.535,0 c -39.06,39.062 -102.37,39.062 -141.41,0 -39.07,-39.047 -39.07,-102.355 0,-141.418 l 307.59,-307.605 c 19.53,-19.536 45.12,-29.297 70.72,-29.297 25.59,0 51.17,9.761 70.71,29.297 39.06,39.058 39.06,102.363 0,141.421 z M 776.23,2282.35 c 19.528,-19.53 45.118,-29.3 70.708,-29.3 25.597,0 51.187,9.77 70.714,29.3 39.043,39.05 39.043,102.37 0,141.42 l -307.597,307.6 c -39.055,39.06 -102.375,39.06 -141.422,0.02 -39.067,-39.05 -39.067,-102.37 -0.024,-141.41 L 776.23,2282.35"
       style="fill:#fbc408;fill-opacity:1;fill-rule:nonzero;stroke:none"
       transform="matrix(0.13333333,0,0,-0.13333333,0,426.66667)" />
  </g>
</svg>
